<?xml version="1.0" standalone="no"?>
<!DOCTYPE svg PUBLIC "-//W3C//DTD SVG 20010904//EN"
 "http://www.w3.org/TR/2001/REC-SVG-20010904/DTD/svg10.dtd">
<svg version="1.0" xmlns="http://www.w3.org/2000/svg"
 width="600.000000pt" height="600.000000pt" viewBox="0 0 600.000000 600.000000"
 preserveAspectRatio="xMidYMid meet">

<g transform="translate(0.000000,600.000000) scale(0.100000,-0.100000)"
fill="#000000" stroke="none">
<path d="M4740 2310 c0 -120 3 -116 -65 -100 -363 87 -1012 103 -1510 38 -202
-26 -198 -26 -395 0 -268 35 -461 45 -750 39 -303 -7 -581 -35 -755 -77 -74
-18 -72 -20 -67 79 7 149 1 146 -131 -59 -101 -156 -133 -220 -112 -220 4 0
727 57 1519 119 l240 19 31 -24 c53 -40 113 -57 210 -58 98 -1 167 17 229 59
35 24 38 24 148 15 62 -6 430 -35 818 -65 388 -30 735 -57 773 -61 67 -6 67
-6 67 19 0 14 -4 28 -9 31 -4 3 -59 84 -121 181 -61 96 -114 175 -116 175 -2
0 -4 -49 -4 -110z"/>
</g>
</svg>
